<svg xmlns="http://www.w3.org/2000/svg" width="278" height="78" fill="none" viewBox="0 0 278 78"><path fill="#F0FF41" d="M232.151 77.176c-1.506 0-2.721-.555-3.513-1.606-.815-1.081-1.027-2.589-.583-4.137l2.746-9.575c.907-3.167 4.222-5.742 7.389-5.742h6.156a1.64 1.64 0 0 0 1.577-1.188l1.062-3.703a1.642 1.642 0 0 0-1.578-2.094l-13.49.002a2 2 0 0 0-.223-.015h-4.545c-1.506 0-2.721-.555-3.513-1.606-.814-1.081-1.027-2.589-.583-4.136l.53-1.849a1.64 1.64 0 0 0-1.577-2.093h-1.741a1.64 1.64 0 0 0-1.578 1.19l-.789 2.752c-.907 3.166-4.222 5.742-7.389 5.742h-6.14c-.731 0-1.374.483-1.577 1.185l-1.745 6.039-.034.108-2.491 8.628c-.011.03-.026.077-.035.108l-1.802 6.246c-.908 3.168-4.223 5.744-7.39 5.744h-9.575c-1.506 0-2.721-.555-3.513-1.606-.814-1.08-1.027-2.588-.583-4.136l8.025-27.837.038-.117.56-1.951a1.64 1.64 0 0 0-1.576-2.095h-1.724a1.64 1.64 0 0 0-1.576 1.186l-3.493 12.105c-.011.03-.026.078-.034.108l-1.319 4.569c-.908 3.169-4.223 5.746-7.389 5.746h-9.576c-1.506 0-2.721-.556-3.513-1.607-.814-1.081-1.027-2.59-.583-4.136l5.819-20.203a1.64 1.64 0 0 0-1.577-2.095h-1.733c-.732 0-1.376.485-1.578 1.188l-2.48 8.64c-.01.028-.026.076-.034.105l-3.57 12.362c-.91 3.169-4.225 5.746-7.391 5.746h-9.575c-1.506 0-2.721-.556-3.513-1.607-.815-1.08-1.027-2.588-.583-4.136l2.746-9.576c.01-.029.025-.074.033-.104l3.044-10.54a1.64 1.64 0 0 0-1.576-2.095h-1.717c-.731 0-1.374.483-1.577 1.185l-.248.862-.035.109-5.599 19.376c-.008.026-.029.088-.036.114l-.191.672c-.907 3.163-4.222 5.74-7.388 5.74h-9.576c-1.506 0-2.721-.556-3.513-1.607-.814-1.08-1.026-2.588-.583-4.136l.528-1.841a1.64 1.64 0 0 0-1.577-2.093h-1.735a1.64 1.64 0 0 0-1.577 1.186l-.793 2.745c-.908 3.169-4.223 5.746-7.39 5.746h-6.205a1.64 1.64 0 0 0-1.578 1.188l-2.035 7.097c-.907 3.167-4.222 5.743-7.39 5.743h-9.574c-1.507 0-2.722-.555-3.514-1.606-.814-1.081-1.027-2.589-.582-4.137l1.775-6.193a1.64 1.64 0 0 0-1.577-2.092h-5.11c-1.506 0-2.721-.556-3.514-1.607-.814-1.08-1.027-2.588-.583-4.135l.528-1.842a1.642 1.642 0 0 0-1.577-2.093h-1.74a1.64 1.64 0 0 0-1.578 1.188l-.787 2.746c-.908 3.167-4.223 5.743-7.39 5.743l-13.115.023h-9.604c-1.506 0-2.72-.555-3.513-1.606-.814-1.08-1.026-2.588-.582-4.135l1.783-6.218a1.642 1.642 0 0 0-1.578-2.094H4.323c-1.506 0-2.721-.555-3.513-1.606-.814-1.081-1.027-2.589-.583-4.136l4.774-16.588.036-.112 1.54-5.343q.022-.057.038-.116l.414-1.446c.908-3.166 4.222-5.743 7.389-5.743h6.133a1.64 1.64 0 0 0 1.578-1.188l2.028-7.072C25.064 2.6 28.379.025 31.547.025L44.69 0h9.574c1.506 0 2.72.555 3.513 1.606.814 1.081 1.026 2.589.583 4.137l-2.746 9.576c-.908 3.166-4.223 5.742-7.39 5.742l-13.145.024h-6.13c-.732 0-1.375.485-1.578 1.188l-2.704 9.411c-.01.03-.026.077-.034.107l-2.372 8.216a1.64 1.64 0 0 0 1.576 2.096l8.686-.017h9.573c1.506 0 2.721.556 3.513 1.607.815 1.08 1.027 2.588.583 4.136l-.547 1.909a1.64 1.64 0 0 0 1.578 2.092h1.74c.732 0 1.375-.484 1.577-1.187l1.033-3.592c.01-.03 3.83-13.248 3.83-13.248.908-3.17 4.222-5.745 7.39-5.745h6.112a1.64 1.64 0 0 0 1.577-1.189l2.03-7.08c.908-3.166 4.223-5.743 7.39-5.743h9.574c1.507 0 2.722.556 3.513 1.607.815 1.08 1.028 2.588.584 4.135l-1.771 6.177a1.64 1.64 0 0 0 1.577 2.093h5.204c1.506 0 2.721.555 3.513 1.606.815 1.081 1.027 2.589.583 4.137l-4.586 15.935a1.64 1.64 0 0 0 1.577 2.094h1.724c.731 0 1.374-.483 1.577-1.186l2.159-7.49.033-.104 5.599-19.377c.011-.031.026-.08.035-.11l1.092-3.79c.909-3.168 4.224-5.744 7.39-5.744h22.677c1.506 0 2.721.556 3.513 1.607.815 1.08 1.028 2.588.584 4.135l-1.776 6.194a1.64 1.64 0 0 0 1.577 2.093h1.788a1.64 1.64 0 0 0 1.577-1.188l2.031-7.08c.908-3.167 4.223-5.744 7.389-5.744h9.575c1.507 0 2.722.556 3.514 1.607.814 1.08 1.026 2.588.582 4.136l-1.77 6.176a1.64 1.64 0 0 0 1.577 2.093h5.113c1.506 0 2.721.555 3.513 1.606.814 1.081 1.026 2.589.582 4.136l-.544 1.901a1.638 1.638 0 0 0 1.577 2.093h1.734c.731 0 1.374-.483 1.577-1.185l4.866-16.834c.909-3.17 4.224-5.746 7.39-5.746h6.156a1.64 1.64 0 0 0 1.577-1.188l2.036-7.098C208.603 2.576 211.918 0 215.084 0h9.575c1.507 0 2.722.556 3.514 1.607.814 1.08 1.027 2.588.582 4.136l-2.745 9.577c-.908 3.166-4.223 5.741-7.389 5.741h-6.157c-.731 0-1.375.485-1.577 1.19l-1.065 3.714a1.64 1.64 0 0 0 1.577 2.093h5.149c1.506 0 2.721.555 3.513 1.607.815 1.08 1.027 2.587.583 4.135l-.545 1.901a1.64 1.64 0 0 0 1.577 2.093h1.741c.731 0 1.374-.483 1.577-1.186l4.859-16.833c.91-3.17 4.225-5.746 7.391-5.746h9.575c1.507 0 2.722.555 3.514 1.606.814 1.081 1.026 2.589.582 4.137l-4.322 15.03-.035.107-.463 1.608a1.643 1.643 0 0 0 1.577 2.095h1.713a1.64 1.64 0 0 0 1.576-1.186l5.093-17.651c.909-3.17 4.223-5.746 7.39-5.746h9.575c1.506 0 2.721.556 3.513 1.607.815 1.08 1.027 2.588.583 4.136l-10.841 37.632c-.909 3.168-4.224 5.744-7.39 5.744h-6.156a1.64 1.64 0 0 0-1.577 1.188l-2.036 7.098c-.907 3.167-4.222 5.743-7.389 5.743zM77.326 35.107c-.73 0-1.374.484-1.576 1.187L70.64 54.02a1.64 1.64 0 0 0 1.577 2.095h1.733c.731 0 1.374-.484 1.577-1.187l5.108-17.726a1.64 1.64 0 0 0-1.576-2.096z"/></svg>